<svg width="102" height="27" viewBox="0 0 102 27" fill="none" xmlns="http://www.w3.org/2000/svg">
<g clip-path="url(#clip0_19_127)">
<path d="M7.76313 6.60128e-07C6.73846 0.00497392 5.72482 0.207384 4.78011 0.595707C3.8354 0.984031 2.97813 1.55069 2.25725 2.26324C1.53636 2.97577 0.965997 3.82029 0.578708 4.74854C0.191422 5.67679 -0.00518325 6.6706 0.000103869 7.67321V10.2077H6.30761V6.53572C6.30754 6.36327 6.3422 6.19251 6.4096 6.03317C6.477 5.87383 6.57583 5.72905 6.70044 5.6071C6.82505 5.48515 6.97301 5.38845 7.13583 5.32247C7.29866 5.25648 7.47319 5.22255 7.64944 5.22258H7.87683C8.05308 5.22255 8.22765 5.25649 8.39044 5.32247C8.55331 5.38845 8.70125 5.48515 8.82594 5.6071C8.95054 5.72904 9.04936 5.87383 9.11684 6.03317C9.18424 6.19251 9.21892 6.36327 9.21892 6.53572V16.3795C10.0472 16.3795 10.8675 16.2199 11.6327 15.9098C12.398 15.5996 13.0934 15.1449 13.6791 14.5719C14.2648 13.9988 14.7294 13.3184 15.0464 12.5696C15.3633 11.8208 15.5264 11.0182 15.5264 10.2077V7.67321C15.5309 5.64179 14.7134 3.69122 13.2525 2.24781C12.5357 1.53552 11.6812 0.969951 10.7387 0.584039C9.79632 0.198129 8.78481 -0.000417813 7.76313 6.60128e-07Z" fill="black"/>
<path d="M7.87713 21.3623H7.64974C7.47351 21.3623 7.29901 21.3283 7.1362 21.2624C6.97339 21.1964 6.82545 21.0997 6.70084 20.9777C6.57623 20.8558 6.4774 20.7112 6.40998 20.5519C6.34256 20.3926 6.30788 20.2217 6.30792 20.0493V10.2057C5.47958 10.2056 4.65934 10.3651 3.89404 10.6753C3.12875 10.9854 2.4334 11.44 1.84768 12.0131C1.26196 12.5862 0.797342 13.2666 0.480386 14.0155C0.163428 14.7642 0.000335775 15.5669 0.000407054 16.3773V18.8766C-0.0101011 19.8807 0.182939 20.8768 0.568362 21.8074C0.953782 22.7381 1.52394 23.5847 2.24586 24.2983C2.96778 25.0119 3.82713 25.5785 4.77422 25.9651C5.72131 26.3518 6.73735 26.5509 7.76356 26.5509C8.78979 26.5509 9.80579 26.3518 10.7529 25.9651C11.7 25.5785 12.5594 25.0119 13.2813 24.2983C14.0032 23.5847 14.5734 22.7381 14.9587 21.8074C15.3442 20.8768 15.5372 19.8807 15.5267 18.8766V16.3773H9.21925V20.0493C9.21925 20.2218 9.18449 20.3926 9.11709 20.5519C9.0496 20.7112 8.9507 20.8559 8.8261 20.9778C8.7015 21.0998 8.55356 21.1964 8.39068 21.2624C8.22789 21.3283 8.05336 21.3623 7.87713 21.3623Z" fill="black"/>
<path d="M26.3082 7.7923H24.0975V18.7657H30.586V16.6969H26.3084L26.3082 7.7923Z" fill="black"/>
<path d="M37.6657 11.8566C37.3539 11.4774 36.9546 11.1759 36.5007 10.9771C36.0467 10.7782 35.551 10.6874 35.0542 10.7122C34.5352 10.7082 34.0213 10.8132 33.5473 11.0201C33.0733 11.2271 32.6502 11.5312 32.3066 11.9118C31.5688 12.7207 31.161 13.7669 31.161 14.8512C31.161 15.9354 31.5688 16.9817 32.3066 17.7906C32.6503 18.1711 33.0735 18.475 33.5475 18.6819C34.0215 18.8887 34.5353 18.9936 35.0542 18.9897C36.1758 18.9897 37.0463 18.6082 37.6657 17.8453V18.7703H39.7326V10.9322H37.6657V11.8566ZM37.0332 16.4421C36.8247 16.6463 36.5757 16.8065 36.3016 16.913C36.0274 17.0195 35.7339 17.0699 35.4391 17.0612C35.1453 17.0704 34.8528 17.0203 34.5798 16.9137C34.3069 16.8072 34.0594 16.6466 33.8527 16.4421C33.4504 16.0056 33.2278 15.4386 33.2278 14.8508C33.2278 14.2629 33.4504 13.696 33.8527 13.2595C34.0594 13.0551 34.307 12.8947 34.58 12.7882C34.8528 12.6818 35.1454 12.6315 35.4391 12.6405C35.7338 12.632 36.0273 12.6826 36.3014 12.789C36.5756 12.8954 36.8246 13.0555 37.0332 13.2595C37.4401 13.6939 37.6657 14.2616 37.6657 14.8508C37.6657 15.44 37.4401 16.0078 37.0332 16.4421Z" fill="black"/>
<path d="M45.0591 16.1935L42.9697 10.9253H40.7107L43.9941 18.5129C43.8566 18.9657 43.5865 19.3691 43.217 19.673C42.8287 19.9307 42.3628 20.0522 41.8949 20.0181V21.8995C42.8071 21.982 43.7191 21.7397 44.4633 21.2169C45.1507 20.7092 45.7029 19.8959 46.1198 18.7769L49.0404 10.9258H46.8294L45.0591 16.1935Z" fill="black"/>
<path d="M53.5146 10.7107C52.9511 10.6913 52.3897 10.7864 51.8658 10.9902C51.3419 11.194 50.8669 11.5019 50.4708 11.8945C49.7061 12.699 49.2822 13.7577 49.2852 14.8564C49.288 15.9551 49.7175 17.0117 50.4866 17.8122C51.2878 18.5958 52.3506 18.9877 53.6749 18.9878C55.2126 18.9878 56.3768 18.4288 57.1675 17.3109L55.5014 16.3699C55.2895 16.633 55.0155 16.8418 54.7029 16.9783C54.3904 17.1149 54.0486 17.1751 53.7069 17.1537C52.4784 17.1537 51.7254 16.6626 51.4477 15.6804H57.4879C57.5395 15.4062 57.5664 15.1279 57.568 14.8491C57.5986 13.7573 57.1869 12.698 56.4226 11.902C56.0524 11.5123 55.6016 11.2044 55.1001 10.999C54.5986 10.7936 54.058 10.6952 53.5146 10.7107ZM51.4159 14.1126C51.5074 13.652 51.7627 13.2381 52.1367 12.9443C52.5342 12.6568 53.0202 12.5102 53.5143 12.529C53.9659 12.5233 54.4073 12.6609 54.7723 12.9212C55.1605 13.2137 55.4209 13.6394 55.5011 14.1123L51.4159 14.1126Z" fill="black"/>
<path d="M61.0738 12.275V10.9265H59.007V18.7648H61.0738V15.0182C61.0738 14.2658 61.3221 13.7276 61.8187 13.4035C62.316 13.0794 62.9177 12.9454 63.5093 13.0272V10.7704C62.9897 10.764 62.4779 10.8939 62.0271 11.1466C61.5819 11.3994 61.2438 11.7997 61.0738 12.275Z" fill="black"/>
<path d="M73.5849 9.48939V7.79224H66.2334V9.86168H70.7837L66.1151 17.0375V18.7654H73.6741V16.6966H68.9158L73.5849 9.48939Z" fill="black"/>
<path d="M78.5559 10.7107C77.9925 10.6913 77.431 10.7864 76.907 10.9902C76.3831 11.194 75.9081 11.5019 75.5119 11.8945C74.7471 12.699 74.3232 13.7578 74.3262 14.8565C74.3291 15.9552 74.7588 17.0117 75.5279 17.8122C76.3291 18.5958 77.3918 18.9877 78.716 18.9878C80.2537 18.9878 81.418 18.4288 82.2088 17.3109L80.5425 16.3699C80.3306 16.6329 80.0567 16.8417 79.7442 16.9782C79.4317 17.1148 79.0899 17.175 78.7483 17.1537C77.5197 17.1537 76.7667 16.6626 76.4893 15.6804H82.5294C82.5808 15.4061 82.6078 15.1279 82.6094 14.8491C82.6396 13.7573 82.2283 12.698 81.464 11.902C81.0938 11.5123 80.6429 11.2044 80.1414 10.999C79.6399 10.7936 79.0994 10.6952 78.5559 10.7107ZM76.4573 14.1126C76.5487 13.652 76.8042 13.238 77.1783 12.9443C77.5759 12.6566 78.0618 12.5101 78.5559 12.5291C79.0076 12.5231 79.449 12.6608 79.8139 12.9212C80.2021 13.2137 80.4625 13.6394 80.5425 14.1123L76.4573 14.1126Z" fill="black"/>
<path d="M86.1149 12.275V10.9265H84.048V18.7648H86.1149V15.0182C86.1149 14.2658 86.363 13.7276 86.8599 13.4035C87.3569 13.0794 87.9583 12.9455 88.5499 13.0272V10.7704C88.0309 10.764 87.5184 10.8939 87.068 11.1466C86.6225 11.3994 86.2847 11.7996 86.1149 12.275Z" fill="black"/>
<path d="M93.2631 10.7092C92.2929 10.7197 91.3569 11.0583 90.6135 11.6674C89.8701 12.2766 89.3642 13.1188 89.1839 14.051C89.0027 14.9833 89.157 15.948 89.6205 16.7816C90.0839 17.6152 90.8281 18.2661 91.7257 18.6238C92.6241 18.9815 93.6213 19.0241 94.5483 18.7441C95.4744 18.4642 96.2733 17.879 96.8094 17.0881C97.3455 16.2971 97.5846 15.3492 97.4875 14.4051C97.3896 13.4609 96.9612 12.579 96.2749 11.9088C95.8833 11.5177 95.4141 11.2094 94.8959 11.003C94.3777 10.7967 93.822 10.6967 93.2631 10.7092ZM94.8167 16.3999C94.6144 16.6001 94.372 16.7576 94.1044 16.8626C93.8375 16.9676 93.5511 17.018 93.2631 17.0105C92.9758 17.0185 92.6902 16.9684 92.4242 16.8633C92.1582 16.7582 91.9167 16.6005 91.7159 16.3999C91.3194 15.9762 91.099 15.4224 91.099 14.8478C91.099 14.2732 91.3194 13.7195 91.7159 13.2958C91.9167 13.0952 92.1582 12.9375 92.4242 12.8325C92.6902 12.7274 92.9758 12.6771 93.2631 12.6851C93.5511 12.6777 93.8367 12.7281 94.1044 12.8332C94.372 12.9382 94.6144 13.0956 94.8167 13.2958C95.2182 13.717 95.4418 14.2717 95.4418 14.8478C95.4418 15.4239 95.2182 15.9786 94.8167 16.3999Z" fill="black"/>
<path d="M101.844 16.3539H99.3292V18.7681H101.844V16.3539Z" fill="black"/>
<path d="M101.844 16.3539H99.3292V18.7681H101.844V16.3539Z" fill="black"/>
</g>
<defs>
<clipPath id="clip0_19_127">
<rect width="102" height="27" fill="white"/>
</clipPath>
</defs>
</svg>
