<svg width="79" height="17" viewBox="0 0 79 17" fill="none" xmlns="http://www.w3.org/2000/svg">
<g clip-path="url(#clip0_19_163)">
<path d="M24.5975 15.904V5.19028H26.2217L26.3639 6.05896H26.4492C26.9043 5.4705 27.7006 5.05017 28.7845 5.05017C30.7784 5.05017 32.3995 6.65054 32.3995 9.03241C32.3995 11.4143 30.8037 13.0146 28.7813 13.0146C27.7006 13.0146 26.958 12.5663 26.5598 12.0619H26.4745V15.876H24.5943V15.904H24.5975ZM30.5193 9.03241C30.5193 7.63131 29.6092 6.75951 28.4969 6.75951C27.3846 6.75951 26.4745 7.62819 26.4745 9.03241C26.4745 10.4366 27.3846 11.3053 28.4969 11.3053C29.6092 11.3053 30.5193 10.4366 30.5193 9.03241Z" fill="black"/>
<path d="M33.338 9.03241C33.338 6.70347 35.0476 5.05017 37.2943 5.05017C39.5727 5.05017 41.2507 6.7346 41.2507 9.03241C41.2507 11.3613 39.5411 13.0146 37.2943 13.0146C35.016 13.0146 33.338 11.3333 33.338 9.03241ZM39.3705 9.03241C39.3705 7.65933 38.4604 6.75951 37.2912 6.75951C36.1536 6.75951 35.2119 7.65622 35.2119 9.03241C35.2119 10.4086 36.1504 11.3053 37.2912 11.3053C38.4319 11.3053 39.3705 10.4086 39.3705 9.03241Z" fill="black"/>
<path d="M42.6158 12.8745V2.24487H44.496V12.8745H42.6158Z" fill="black"/>
<path d="M51.4985 5.19031H53.4925L50.105 14.531C49.7637 15.4557 49.3087 15.904 48.0826 15.904H46.2624V14.1916H47.7982C48.0826 14.1916 48.2248 14.0515 48.3101 13.8273L48.4807 13.3229L45.2923 5.18719H47.2863L49.3087 10.5176H49.6215L51.4448 5.18719H51.4985V5.19031Z" fill="black"/>
<path d="M53.8622 13.27H55.7709C55.8562 13.7743 56.3681 14.4469 57.5658 14.4469C58.7034 14.4469 59.446 13.7463 59.446 12.6784V11.6135H59.3606C58.934 12.0619 58.1662 12.4542 57.196 12.4542C55.2021 12.4542 53.6379 10.941 53.6379 8.75219C53.6379 6.56336 55.1736 5.05017 57.196 5.05017C58.2199 5.05017 58.9909 5.4705 59.4744 6.03094H59.5597L59.7019 5.19028H61.3262V12.6784C61.3262 14.7271 59.9326 16.0721 57.5689 16.0721C54.9145 16.0721 53.9191 14.3628 53.8622 13.27ZM59.4144 8.75219C59.4144 7.54724 58.5612 6.70347 57.4488 6.70347C56.3681 6.70347 55.5118 7.54413 55.5118 8.75219C55.5118 9.96024 56.365 10.8009 57.4488 10.8009C58.5327 10.8009 59.4144 9.95713 59.4144 8.75219Z" fill="black"/>
<path d="M62.6028 9.03241C62.6028 6.70347 64.3123 5.05017 66.5591 5.05017C68.8375 5.05017 70.5154 6.7346 70.5154 9.03241C70.5154 11.3613 68.8059 13.0146 66.5591 13.0146C64.2807 13.0146 62.6028 11.3333 62.6028 9.03241ZM68.6384 9.03241C68.6384 7.65933 67.6999 6.75951 66.5591 6.75951C65.4215 6.75951 64.4798 7.65622 64.4798 9.03241C64.4798 10.4086 65.4183 11.3053 66.5591 11.3053C67.6967 11.3053 68.6384 10.4086 68.6384 9.03241Z" fill="black"/>
<path d="M71.8268 12.8745V5.19028H73.4511L73.5933 5.91885H73.6786C73.9914 5.58259 74.7593 5.05017 75.9285 5.05017C77.7234 5.05017 79.0032 6.31116 79.0032 8.27581V12.9026H77.123V8.52801C77.123 7.54724 76.412 6.81556 75.4419 6.81556C74.4718 6.81556 73.7039 7.57215 73.7039 8.52801V12.9026H71.8268V12.8745Z" fill="black"/>
<path d="M14.4633 11.9989L19.0738 9.36168C19.3297 9.22157 19.4719 8.96937 19.4719 8.68915V3.41479C19.4719 3.13457 19.3297 2.88237 19.0738 2.74226L14.4633 0.105082C14.2074 -0.0350275 13.923 -0.0350275 13.667 0.105082L9.0534 2.74226C8.79744 2.88237 8.65524 3.13457 8.65524 3.41479V12.8115L5.40992 14.6641L2.1646 12.8115V9.1375L5.40992 7.28494L7.54608 8.48988V6.02083L5.80808 5.04006C5.69432 4.98402 5.55212 4.92798 5.40992 4.92798C5.26772 4.92798 5.12552 4.956 5.01176 5.04006L0.39816 7.68036C0.1422 7.82047 0 8.07266 0 8.35288V13.6272C0 13.9075 0.1422 14.1597 0.39816 14.2998L5.0086 16.937C5.26456 17.0771 5.54896 17.0771 5.80492 16.937L10.4154 14.2998C10.6713 14.1597 10.8135 13.9075 10.8135 13.6272V4.23054L10.8704 4.20252L14.062 2.37798L17.3073 4.23054V7.90453L14.062 9.75398L11.9258 8.54904V11.0181L13.6638 11.9989C13.9198 12.139 14.2042 12.139 14.4633 11.9989Z" fill="black"/>
</g>
<defs>
<clipPath id="clip0_19_163">
<rect width="79" height="17" fill="white"/>
</clipPath>
</defs>
</svg>
