<svg width="24" height="24" viewBox="0 0 24 24" fill="currentColor" xmlns="http://www.w3.org/2000/svg">
<g clip-path="url(#clip0_1860_22666)">
<path d="M19.3519 1.7998H4.64791C4.35165 1.80087 4.0585 1.86095 3.78519 1.97663C3.51188 2.09231 3.26377 2.26131 3.05502 2.474C2.84628 2.68668 2.68098 2.93888 2.56858 3.21619C2.45618 3.4935 2.39886 3.7905 2.39992 4.09022V18.9334C2.39886 19.2331 2.45618 19.5301 2.56858 19.8074C2.68098 20.0847 2.84628 20.3369 3.05502 20.5496C3.26377 20.7623 3.51188 20.9313 3.78519 21.047C4.0585 21.1626 4.35165 21.2227 4.64791 21.2238H17.0879L16.5119 19.1681L17.9119 20.6492L19.2399 21.8874L21.5999 23.9998V4.09022C21.6009 3.7905 21.5436 3.4935 21.4312 3.21619C21.3188 2.93888 21.1535 2.68668 20.9448 2.474C20.736 2.26131 20.4879 2.09231 20.2146 1.97663C19.9413 1.86095 19.6482 1.80087 19.3519 1.7998ZM15.1119 16.295C15.1119 16.295 14.7199 15.8174 14.3919 15.3966C15.1865 15.2077 15.8893 14.7403 16.3759 14.0774C15.9802 14.3431 15.5562 14.563 15.1119 14.7329C14.599 14.9553 14.062 15.1156 13.5119 15.2105C12.5709 15.3899 11.605 15.3899 10.6639 15.2105C10.1172 15.1015 9.58155 14.9417 9.06391 14.7329C8.78837 14.6294 8.52095 14.5049 8.26391 14.3607L8.15991 14.304H8.11991C7.91991 14.1907 7.80791 14.1098 7.80791 14.1098C8.27743 14.7597 8.9565 15.2234 9.72791 15.4209L8.99991 16.3435C8.34786 16.3607 7.70155 16.2163 7.11731 15.9228C6.53307 15.6294 6.02862 15.1959 5.64791 14.6601C5.68851 12.407 6.23567 10.1928 7.24791 8.18544C8.13037 7.48342 9.20666 7.07616 10.3279 7.02L10.4399 7.15759C9.38389 7.42042 8.39793 7.91501 7.55191 8.60629C7.55191 8.60629 7.79191 8.4768 8.19991 8.28256C8.98822 7.92052 9.82773 7.68566 10.6879 7.58653H10.8799C11.6159 7.49691 12.3599 7.49691 13.0959 7.58653C14.2549 7.71941 15.3771 8.07954 16.3999 8.64676C15.5964 7.98719 14.6639 7.50725 13.6639 7.23852L13.8159 7.06047C14.9395 7.11708 16.0182 7.5242 16.9039 8.22591C17.9143 10.234 18.4613 12.4477 18.5039 14.7006C18.1097 15.2258 17.5946 15.6457 17.0034 15.9236C16.4123 16.2014 15.7629 16.3289 15.1119 16.295Z" fill="url(#paint0_linear_1860_22666)"/>
<path d="M13.5119 13.5301C13.9758 13.5301 14.3519 13.1217 14.3519 12.6181C14.3519 12.1144 13.9758 11.7061 13.5119 11.7061C13.048 11.7061 12.6719 12.1144 12.6719 12.6181C12.6719 13.1217 13.048 13.5301 13.5119 13.5301Z" fill="url(#paint1_linear_1860_22666)"/>
<path d="M10.5119 11.7064C10.3268 11.6907 10.1413 11.7315 9.97985 11.8234C9.81842 11.9153 9.68869 12.0541 9.60777 12.2213C9.52686 12.3885 9.49858 12.5763 9.52667 12.7599C9.55476 12.9436 9.6379 13.1144 9.7651 13.2497C9.8923 13.3851 10.0576 13.4787 10.2391 13.5182C10.4206 13.5576 10.6098 13.5411 10.7818 13.4707C10.9537 13.4004 11.1002 13.2795 11.202 13.1241C11.3038 12.9688 11.3561 12.7861 11.3519 12.6004C11.3568 12.3711 11.2716 12.149 11.1145 11.9818C10.9574 11.8147 10.7411 11.7158 10.5119 11.7064Z" fill="url(#paint2_linear_1860_22666)"/>
</g>
<defs>
<linearGradient id="paint0_linear_1860_22666" x1="11.9999" y1="1.7998" x2="11.9999" y2="23.9998" gradientUnits="userSpaceOnUse">
<stop stop-color="black"/>
<stop offset="1" stop-color="black"/>
</linearGradient>
<linearGradient id="paint1_linear_1860_22666" x1="13.5119" y1="11.7061" x2="13.5119" y2="13.5301" gradientUnits="userSpaceOnUse">
<stop stop-color="black"/>
<stop offset="1" stop-color="black"/>
</linearGradient>
<linearGradient id="paint2_linear_1860_22666" x1="10.4341" y1="11.7031" x2="10.4341" y2="13.5391" gradientUnits="userSpaceOnUse">
<stop stop-color="black"/>
<stop offset="1" stop-color="black"/>
</linearGradient>
<clipPath id="clip0_1860_22666">
<rect width="24" height="24" fill="white"/>
</clipPath>
</defs>
</svg>
