<svg width="24" height="24" viewBox="0 0 24 24" fill="currentColor" xmlns="http://www.w3.org/2000/svg">
<g clip-path="url(#clip0_1860_22659)">
<path d="M12 0.599609C9.29311 0.599724 6.67453 1.58741 4.61286 3.38593C2.55119 5.18445 1.18096 7.67645 0.74734 10.416C0.313723 13.1556 0.845019 15.964 2.24616 18.3387C3.64731 20.7134 5.82686 22.4994 8.39485 23.3772C8.96484 23.4795 9.17859 23.1289 9.17859 22.822C9.17859 22.5445 9.16433 21.624 9.16433 20.6451C6.30009 21.1857 5.55909 19.9292 5.3311 19.2718C5.0781 18.6323 4.67705 18.0657 4.1626 17.6207C3.76361 17.4016 3.19361 16.861 4.14834 16.8464C4.5129 16.887 4.86254 17.017 5.16766 17.2256C5.47277 17.4341 5.72435 17.715 5.90109 18.0444C6.05701 18.3316 6.26666 18.5844 6.51804 18.7884C6.76942 18.9924 7.05758 19.1435 7.36602 19.233C7.67445 19.3226 7.99709 19.3489 8.31546 19.3104C8.63382 19.2719 8.94164 19.1694 9.22129 19.0087C9.27065 18.4145 9.52893 17.8589 9.94806 17.4455C7.41158 17.1532 4.7611 16.1451 4.7611 11.6743C4.74508 10.5127 5.16316 9.38878 5.92959 8.5331C5.58107 7.52348 5.62185 6.41551 6.04359 5.43569C6.04359 5.43569 6.9983 5.12886 9.17857 6.63375C11.0439 6.10774 13.0132 6.10774 14.8785 6.63375C17.0587 5.11426 18.0135 5.43569 18.0135 5.43569C18.4353 6.41549 18.4761 7.52349 18.1275 8.5331C18.8962 9.38731 19.3147 10.5122 19.296 11.6743C19.296 16.1597 16.6312 17.1532 14.0948 17.4455C14.3668 17.7282 14.5764 18.0676 14.7091 18.4407C14.8419 18.8138 14.8948 19.2119 14.8643 19.6078C14.8643 21.1711 14.85 22.4276 14.85 22.8221C14.85 23.1289 15.0638 23.4942 15.6338 23.3773C18.1972 22.4923 20.3705 20.7021 21.7657 18.3262C23.1609 15.9503 23.6871 13.1433 23.2505 10.4064C22.8139 7.66947 21.4428 5.1807 19.382 3.38437C17.3213 1.58803 14.7049 0.601053 12 0.599609Z" fill="url(#paint0_linear_1860_22659)"/>
</g>
<defs>
<linearGradient id="paint0_linear_1860_22659" x1="12.0001" y1="0.599609" x2="12.0001" y2="23.3996" gradientUnits="userSpaceOnUse">
<stop stop-color="black"/>
<stop offset="1" stop-color="black"/>
</linearGradient>
<clipPath id="clip0_1860_22659">
<rect width="24" height="24" fill="black"/>
</clipPath>
</defs>
</svg>
