<svg width="25" height="25" viewBox="0 0 25 25" fill="none" xmlns="http://www.w3.org/2000/svg">
<path d="M16.375 12.5C16.375 13.2664 16.1477 14.0156 15.7219 14.6528C15.2962 15.2901 14.691 15.7867 13.9829 16.08C13.2748 16.3733 12.4957 16.4501 11.744 16.3005C10.9923 16.151 10.3019 15.782 9.75996 15.24C9.21803 14.6981 8.84897 14.0077 8.69946 13.256C8.54994 12.5043 8.62668 11.7252 8.91997 11.0171C9.21326 10.309 9.70993 9.70385 10.3472 9.27806C10.9844 8.85227 11.7336 8.625 12.5 8.625C13.5274 8.62618 14.5123 9.03481 15.2387 9.76126C15.9652 10.4877 16.3738 11.4726 16.375 12.5ZM24.6094 7.17188V17.8281C24.6073 19.626 23.8922 21.3497 22.6209 22.6209C21.3497 23.8922 19.626 24.6073 17.8281 24.6094H7.17188C5.374 24.6073 3.65035 23.8922 2.37906 22.6209C1.10777 21.3497 0.392661 19.626 0.390625 17.8281V7.17188C0.392661 5.374 1.10777 3.65035 2.37906 2.37906C3.65035 1.10777 5.374 0.392661 7.17188 0.390625H17.8281C19.626 0.392661 21.3497 1.10777 22.6209 2.37906C23.8922 3.65035 24.6073 5.374 24.6094 7.17188ZM18.3125 12.5C18.3125 11.3504 17.9716 10.2266 17.3329 9.27075C16.6942 8.31489 15.7864 7.56988 14.7243 7.12995C13.6623 6.69002 12.4936 6.57491 11.366 6.79919C10.2385 7.02346 9.20283 7.57705 8.38994 8.38994C7.57705 9.20283 7.02346 10.2385 6.79919 11.366C6.57491 12.4936 6.69002 13.6623 7.12995 14.7243C7.56988 15.7864 8.31489 16.6942 9.27075 17.3329C10.2266 17.9716 11.3504 18.3125 12.5 18.3125C14.041 18.3108 15.5185 17.6978 16.6081 16.6081C17.6978 15.5185 18.3108 14.041 18.3125 12.5ZM20.25 6.20312C20.25 5.91572 20.1648 5.63478 20.0051 5.39581C19.8454 5.15685 19.6185 4.9706 19.353 4.86061C19.0874 4.75063 18.7953 4.72185 18.5134 4.77792C18.2315 4.83399 17.9726 4.97239 17.7694 5.17561C17.5661 5.37883 17.4277 5.63776 17.3717 5.91963C17.3156 6.20151 17.3444 6.49369 17.4544 6.75921C17.5643 7.02474 17.7506 7.25168 17.9896 7.41135C18.2285 7.57103 18.5095 7.65625 18.7969 7.65625C19.1823 7.65625 19.5519 7.50315 19.8244 7.23064C20.0969 6.95813 20.25 6.58852 20.25 6.20312Z" fill="black"/>
</svg>
