<svg width="24" height="24" viewBox="0 0 24 24" fill="white" xmlns="http://www.w3.org/2000/svg">
<path d="M12 24C18.6274 24 24 18.6274 24 12C24 5.37258 18.6274 0 12 0C5.37258 0 0 5.37258 0 12C0 18.6274 5.37258 24 12 24Z" fill="url(#paint0_linear_1860_22662)"/>
<path d="M4.60793 5.04785L10.3438 12.7171L4.57178 18.9526H5.87093L10.9244 13.4932L15.0074 18.9526H19.4281L13.3694 10.852L18.742 5.04785H17.4429L12.789 10.0757L9.02868 5.04785H4.60793ZM6.51838 6.0047H8.54926L17.5174 17.9957H15.4865L6.51838 6.0047Z" fill="#1d4ed8"/>
<defs>
<linearGradient id="paint0_linear_1860_22662" x1="12" y1="0" x2="12" y2="24" gradientUnits="userSpaceOnUse">
<stop stop-color="black"/>
<stop offset="1" stop-color="black"/>
</linearGradient>
</defs>
</svg>
